<?xml version="1.0" encoding="UTF-8"?>
<svg version="1.1" xmlns="http://www.w3.org/2000/svg" width="1793" height="1856">
<path d="M0 0 C1.82562407 -0.00424107 1.82562407 -0.00424107 3.68812943 -0.00856781 C10.13372255 -0.02349636 16.57929367 -0.03276488 23.02490234 -0.03710938 C29.6149715 -0.04257395 36.20483197 -0.066578 42.79483604 -0.09508133 C47.92217561 -0.11388979 53.0494668 -0.11892297 58.17683792 -0.12044525 C60.60283163 -0.12343317 63.02882532 -0.13132722 65.45478439 -0.14463043 C88.28321692 -0.26084803 110.08930876 2.6622223 132.4765625 6.890625 C133.39400238 7.06264435 134.31144226 7.2346637 135.25668335 7.41189575 C201.82065408 19.94680445 266.62913606 41.74365452 324.6015625 77.203125 C325.45959473 77.72116699 326.31762695 78.23920898 327.20166016 78.77294922 C338.20916647 85.43049092 348.5489392 92.66838495 358.63330078 100.65234375 C360.51484074 102.13479746 362.411723 103.59433151 364.31640625 105.046875 C371.45491769 110.51801114 378.14980285 116.31355802 384.6953125 122.48046875 C387.08173018 124.71613155 389.49749786 126.8845829 391.9765625 129.015625 C398.40829004 134.59787909 404.06065998 140.75095873 409.6015625 147.203125 C410.50847903 148.23493397 411.41608434 149.26613777 412.32421875 150.296875 C428.23381514 168.45428276 441.48786613 188.24773795 451.6015625 210.203125 C451.92721191 210.90421387 452.25286133 211.60530273 452.58837891 212.32763672 C465.66334568 240.84266665 473.65406946 272.34901063 473.8046875 303.80078125 C473.81174713 304.78459274 473.81880676 305.76840424 473.82608032 306.7820282 C474.05420263 347.91312841 474.05420263 347.91312841 470.6015625 366.203125 C470.40288574 367.27691406 470.20420898 368.35070312 469.99951172 369.45703125 C456.21854465 442.04711397 424.91400208 509.55269983 394.07597351 576.17086792 C366.13346473 636.30405744 366.13346473 636.30405744 345.6015625 699.203125 C345.16408691 700.88510986 345.16408691 700.88510986 344.71777344 702.60107422 C335.73957545 737.69468754 331.30942258 773.94507777 332.6015625 810.203125 C332.64265137 811.35699707 332.68374023 812.51086914 332.72607422 813.69970703 C334.76603816 864.68577053 343.80807689 916.75685188 360.18798828 965.15014648 C360.6697545 967.54162942 360.41948087 968.92016698 359.6015625 971.203125 C351.43963775 983.05241677 340.40420063 993.54375744 330.16650391 1003.59643555 C328.55219076 1005.25381383 327.07360302 1006.98148837 325.6015625 1008.765625 C321.47497565 1013.56594032 316.80452451 1017.76800012 312.15795898 1022.05322266 C308.75886 1025.18805533 305.40563358 1028.34116873 302.1640625 1031.640625 C299.14197004 1034.70821132 295.98744614 1037.55670748 292.72265625 1040.36328125 C290.37665192 1042.39821319 288.084198 1044.48603467 285.7890625 1046.578125 C281.46895459 1050.47675897 277.02084869 1054.17816358 272.49609375 1057.8359375 C269.98805753 1059.88704405 267.52058157 1061.97736832 265.06445312 1064.09008789 C257.51744242 1070.56840289 249.67390871 1076.61520863 241.73046875 1082.59765625 C239.7033417 1084.12637041 237.68295813 1085.66356475 235.6640625 1087.203125 C204.72121982 1110.71874824 171.85632517 1131.84234207 137.6015625 1150.203125 C136.7657666 1150.65187988 135.9299707 1151.10063477 135.06884766 1151.56298828 C128.28621093 1155.18842622 121.45891893 1158.72124407 114.6015625 1162.203125 C112.98773682 1163.02321045 112.98773682 1163.02321045 111.34130859 1163.85986328 C58.42628979 1190.54469073 -2.28887886 1214.37482281 -61.3984375 1222.203125 C-61.21667969 1221.02713745 -61.21667969 1221.02713745 -61.03125 1219.82739258 C-60.48504716 1216.28626505 -59.94179082 1212.7446908 -59.3984375 1209.203125 C-59.23085937 1208.12208496 -59.06328125 1207.04104492 -58.890625 1205.92724609 C-50.82057828 1153.25578048 -49.50576027 1096.66824595 -65.43652344 1045.34667969 C-66.43825982 1042.07298487 -67.38113273 1038.78655575 -68.3125 1035.4921875 C-78.27409134 1000.47666913 -92.42058541 968.0320765 -112.8515625 937.8203125 C-114.3984375 935.203125 -114.3984375 935.203125 -114.3984375 932.203125 C-113.54507812 931.7390625 -112.69171875 931.275 -111.8125 930.796875 C-78.34937087 912.38939906 -46.16680774 891.13768125 -16.3984375 867.203125 C-15.44582031 866.44515625 -14.49320313 865.6871875 -13.51171875 864.90625 C-7.50879549 860.0765086 -1.80630565 854.9894224 3.8359375 849.75 C6.03537951 847.72452515 8.26032421 845.76218019 10.5390625 843.828125 C18.46248887 836.94899959 26.09431538 829.3505892 32.828125 821.30078125 C34.28616998 819.57617739 35.77996705 817.91889491 37.3125 816.26171875 C38.26355298 815.20099772 39.21407437 814.13979982 40.1640625 813.078125 C41.05222656 812.10617187 41.94039062 811.13421875 42.85546875 810.1328125 C44.98282982 807.29480287 44.98282982 807.29480287 44.01171875 803.9921875 C41.02864122 798.09213942 35.20591705 793.61498101 29.6015625 790.203125 C28.6115625 790.203125 27.6215625 790.203125 26.6015625 790.203125 C24.74143501 792.11558636 24.74143501 792.11558636 22.8515625 794.703125 C13.49177283 806.49676046 2.77853678 817.10992183 -7.8359375 827.765625 C-8.66391846 828.59827881 -9.49189941 829.43093262 -10.3449707 830.28881836 C-43.41838719 863.27564651 -83.86534329 887.60063576 -124.3984375 910.203125 C-125.52459473 910.8326709 -126.65075195 911.4622168 -127.81103516 912.11083984 C-145.17036884 921.80884966 -162.64530291 931.24066014 -180.3984375 940.203125 C-181.2661377 940.64237305 -182.13383789 941.08162109 -183.02783203 941.53417969 C-228.45975343 964.34571947 -290.88601969 984.96693192 -341.5859375 968.390625 C-351.26582817 964.41708963 -359.13363736 956.97093858 -364.2734375 947.890625 C-372.36045748 921.38317064 -364.52687089 894.62896615 -356.75195312 869.07861328 C-355.01794011 863.28458594 -353.96334103 857.89393087 -356.8984375 852.390625 C-364.14273019 846.0518689 -373.65131732 844.28550994 -382.73046875 841.93554688 C-388.77728976 840.27779231 -393.056201 838.81583751 -397.3984375 834.203125 C-401.71244715 821.26109606 -395.32119504 808.63188581 -389.66796875 797.2109375 C-387.30519145 791.61297282 -386.9173701 786.46630001 -388.23828125 780.5703125 C-390.14422292 776.68142141 -393.36503451 775.71871345 -397.171875 773.9609375 C-401.08521746 771.82897127 -404.09372139 769.2315331 -407.3359375 766.203125 C-407.87903564 765.70441895 -408.42213379 765.20571289 -408.98168945 764.69189453 C-413.22745411 760.66347181 -416.97665877 756.84854597 -417.9296875 750.87109375 C-417.78403746 734.64932013 -409.63331242 724.67050827 -399.30639648 712.84472656 C-392.10847284 704.5587878 -392.10847284 704.5587878 -389.3984375 694.203125 C-393.27130063 685.78385733 -401.61782396 681.26606536 -409.5859375 677.328125 C-428.39218271 667.71777354 -450.81723417 654.17006033 -458.42578125 633.3984375 C-464.60781001 611.9180242 -456.9901338 592.03353514 -446.7734375 573.328125 C-436.83357503 556.13518095 -423.72101993 540.63169361 -411.64746094 524.92529297 C-399.13689322 508.64980102 -386.97072187 492.12916575 -375.00830078 475.44677734 C-373.90699395 473.91189566 -372.8037087 472.37843212 -371.69873047 470.84619141 C-370.03069616 468.53151405 -368.36992192 466.21179428 -366.7109375 463.890625 C-366.20546387 463.19114746 -365.69999023 462.49166992 -365.17919922 461.77099609 C-361.04927016 455.96234975 -358.30449885 450.55425127 -358.3984375 443.203125 C-359.04673286 440.37216535 -360.13227629 437.83959761 -361.3359375 435.203125 C-361.6551416 434.46674805 -361.9743457 433.73037109 -362.30322266 432.97167969 C-364.76484314 427.37893534 -367.50085793 421.9337716 -370.27294922 416.49047852 C-398.68517314 360.28487039 -404.62355565 295.07905999 -385.3359375 234.953125 C-374.55961182 202.97697149 -356.85828376 173.32176926 -334.3984375 148.203125 C-333.65335938 147.36007812 -332.90828125 146.51703125 -332.140625 145.6484375 C-329.91238291 143.14865336 -327.65699433 140.67553189 -325.3984375 138.203125 C-324.51929688 137.21957031 -323.64015625 136.23601562 -322.734375 135.22265625 C-311.61321955 122.86242794 -299.51974539 111.42411717 -286.3984375 101.203125 C-285.51696045 100.50485596 -285.51696045 100.50485596 -284.61767578 99.79248047 C-214.63243308 44.40148429 -126.94667131 10.33168515 -38.3984375 1.203125 C-37.165205 1.07043213 -37.165205 1.07043213 -35.90705872 0.93505859 C-23.96708641 -0.16683541 -11.9795601 0.01888817 0 0 Z M-44.3984375 37.203125 C-45.16881348 37.36941406 -45.93918945 37.53570313 -46.73291016 37.70703125 C-65.13551418 41.74416559 -83.17718412 49.02380907 -98.8828125 59.5 C-99.47989014 59.89646729 -100.07696777 60.29293457 -100.69213867 60.70141602 C-102.34672069 61.8138341 -103.98460442 62.95097664 -105.62109375 64.08984375 C-115.04827233 69.82221274 -125.70764742 71.00009433 -136.4609375 72.140625 C-168.04130782 75.82770896 -194.76308798 86.60260689 -218.3984375 108.203125 C-219.68814453 109.35167969 -219.68814453 109.35167969 -221.00390625 110.5234375 C-242.02979256 130.24565201 -257.04640728 161.82439103 -258.5859375 190.72265625 C-258.66649126 194.61340278 -258.67758769 198.49954414 -258.6484375 202.390625 C-258.64666504 203.07366699 -258.64489258 203.75670898 -258.64306641 204.46044922 C-258.61569236 213.4412434 -258.30068632 222.23950716 -256.8359375 231.109375 C-256.35536044 234.50774135 -256.32919136 237.77544119 -256.3984375 241.203125 C-257.04167969 241.49703125 -257.68492187 241.7909375 -258.34765625 242.09375 C-285.31899587 255.48323101 -299.16405861 285.02766714 -308.3984375 312.203125 C-309.83880629 317.13828851 -310.74702531 322.10482757 -311.3984375 327.203125 C-311.58792969 328.36134766 -311.58792969 328.36134766 -311.78125 329.54296875 C-316.43411526 361.57615649 -305.91132803 397.53295582 -286.74975586 423.25830078 C-261.3236684 456.32369871 -228.58316319 472.35113673 -187.79296875 477.8515625 C-185.54327143 478.14077543 -183.29096791 478.41159172 -181.03515625 478.6484375 C-174.81343111 479.95730412 -171.78668332 483.86158919 -168.1484375 488.765625 C-163.50199569 494.85051333 -158.64697031 500.62151223 -153.3984375 506.203125 C-152.851875 506.80253906 -152.3053125 507.40195313 -151.7421875 508.01953125 C-129.51212213 531.50276207 -98.27465616 542.39954035 -66.57421875 543.4296875 C-40.7741256 543.94610416 -17.15476303 540.12872784 3.1875 523.06640625 C8.20425718 519.19424901 14.21209401 515.82765951 20.6015625 515.203125 C32.77429002 518.00478451 43.90294113 524.85555329 54.6796875 530.94140625 C63.48629655 535.70140304 72.88942422 538.01792183 82.6015625 540.203125 C83.31538086 540.3885083 84.02919922 540.5738916 84.76464844 540.76489258 C88.92205278 541.40710779 93.0163287 541.26408257 97.21484375 541.1953125 C99.12173943 541.17779195 101.02864082 541.16088408 102.93554688 541.14453125 C105.92423473 541.11363155 108.91263357 541.07814719 111.90112305 541.03173828 C114.79739885 540.98916358 117.69333898 540.96589208 120.58984375 540.9453125 C121.91523918 540.91738113 121.91523918 540.91738113 123.26741028 540.8888855 C131.42844576 540.85549031 137.50297551 542.9843095 144.1015625 547.953125 C144.9575 548.58734375 145.8134375 549.2215625 146.6953125 549.875 C149.0187409 551.73624103 151.18266874 553.6492857 153.375 555.65625 C157.49505832 559.28679644 161.83131239 561.76203902 166.7265625 564.203125 C167.55188477 564.62827393 168.37720703 565.05342285 169.22753906 565.49145508 C173.02489319 567.43901407 176.84354695 569.33130211 180.703125 571.15234375 C195.01669929 577.92232804 200.98321914 586.92717036 206.47412109 601.52246094 C211.77034199 616.64468884 214.55634076 632.45777138 216.30078125 648.3515625 C217.91627172 663.59068367 217.91627172 663.59068367 224.6015625 677.203125 C225.03082031 677.84636719 225.46007813 678.48960937 225.90234375 679.15234375 C231.28533487 686.21851203 240.19876819 693.50814192 248.859375 695.83984375 C265.09437889 697.99063486 277.09940484 695.4155215 290.47265625 685.8671875 C317.67490115 664.13052067 334.64353958 619.31257556 339.0859375 585.8203125 C340.02685031 577.06587551 340.10590438 568.20665361 340.22387695 559.40722656 C340.57220161 539.27578471 340.57220161 539.27578471 348.23339844 531.55957031 C350.75516699 529.18321073 353.3447692 526.88818082 355.9375 524.58984375 C374.93091629 507.39620683 381.56931341 481.78565137 388.2109375 457.92407227 C391.08069598 447.62864452 394.64627454 438.04297337 399.03515625 428.29736328 C414.84612558 393.05817738 415.63825462 352.6964663 401.9140625 316.578125 C397.01702003 305.10972992 391.39196282 293.8105999 383.9765625 283.765625 C379.88135894 277.75545783 379.46927977 273.30636629 380.6015625 266.203125 C381.49959919 261.57551958 382.55665294 256.98843074 383.64453125 252.40234375 C384.75169781 247.67153291 385.40985431 243.05973254 385.6015625 238.203125 C385.653125 237.295625 385.7046875 236.388125 385.7578125 235.453125 C386.75223208 202.96875194 374.79575183 170.71475218 352.9765625 146.828125 C351.19905956 144.9389545 349.40133597 143.07127893 347.6015625 141.203125 C346.63863281 140.14544922 346.63863281 140.14544922 345.65625 139.06640625 C325.46699688 117.52246298 293.0738438 102.88389718 263.75390625 101.92578125 C250.40880248 101.67018122 237.57661348 101.90661814 224.6015625 105.203125 C223.89644531 105.38004883 223.19132812 105.55697266 222.46484375 105.73925781 C213.73652891 107.97540573 205.77342653 110.72550461 197.82421875 115.06640625 C189.50310052 118.00149159 182.08211661 115.79873008 174.1015625 112.828125 C164.60699933 109.37810648 155.77319348 106.82639793 145.6015625 107.203125 C145.2715625 105.945 144.9415625 104.686875 144.6015625 103.390625 C136.58995927 79.90455525 109.58276439 63.67943357 88.6015625 53.203125 C59.82998369 39.43344525 27.02243165 33.75049181 -4.6484375 33.890625 C-5.93470032 33.89335922 -5.93470032 33.89335922 -7.24694824 33.89614868 C-19.85142803 33.94123391 -32.07016853 34.35964684 -44.3984375 37.203125 Z " fill="#00A4EC" transform="translate(1253.3984375,605.796875)"/>
<path d="M0 0 C0.67675781 0.61875 1.35351562 1.2375 2.05078125 1.875 C3.08138672 2.803125 3.08138672 2.803125 4.1328125 3.75 C7.41904212 6.85552046 9.82777953 9.39066035 11.05078125 13.875 C6.96033714 15.44323625 2.87937801 16.95375831 -1.296875 18.27734375 C-20.05883299 24.31345323 -38.02818121 32.84218179 -52.94921875 45.875 C-53.95855469 46.72449219 -54.96789063 47.57398438 -56.0078125 48.44921875 C-66.1320012 57.16633315 -73.86505713 67.60917067 -81.32421875 78.625 C-81.71689941 79.20217773 -82.10958008 79.77935547 -82.51416016 80.37402344 C-85.77866311 85.31737388 -88.38028598 90.54315106 -90.94921875 95.875 C-91.63209961 95.86452637 -92.31498047 95.85405273 -93.01855469 95.84326172 C-120.41654833 95.4807087 -147.83014008 96.65587614 -172.94921875 108.875 C-173.60921875 109.535 -174.26921875 110.195 -174.94921875 110.875 C-174.64628906 111.4097998 -174.34335938 111.94459961 -174.03125 112.49560547 C-172.66616668 114.91127792 -171.30762555 117.33056735 -169.94921875 119.75 C-169.23378906 121.01263672 -169.23378906 121.01263672 -168.50390625 122.30078125 C-168.05273438 123.10644531 -167.6015625 123.91210938 -167.13671875 124.7421875 C-166.50830078 125.85762939 -166.50830078 125.85762939 -165.8671875 126.99560547 C-164.94921875 128.875 -164.94921875 128.875 -164.94921875 130.875 C-164.36132568 130.67865967 -163.77343262 130.48231934 -163.16772461 130.2800293 C-133.06370687 120.29036841 -100.57527458 114.01770394 -70.75390625 128.88671875 C-52.77828097 138.39973816 -37.24972073 151.72860464 -24.94921875 167.875 C-18.47208268 164.41020846 -12.13279018 160.84181941 -5.94921875 156.875 C-18.84165867 131.18779016 -40.50914078 117.28331904 -64.94921875 103.875 C-61.59335044 84.62749821 -45.05352009 67.93557632 -29.78881836 57.1184082 C-6.10244679 40.85625938 21.14482944 36.21230481 49.55859375 40.60546875 C69.76683348 44.44247629 88.90809036 54.96783933 103.05078125 69.875 C103.81068359 70.56916016 103.81068359 70.56916016 104.5859375 71.27734375 C112.86890674 78.99427865 118.62089468 88.72997673 123.92578125 98.625 C124.29493652 99.30933105 124.6640918 99.99366211 125.04443359 100.69873047 C127.97699841 106.32499034 131.05078125 112.43755006 131.05078125 118.875 C131.63569336 118.72353516 132.22060547 118.57207031 132.82324219 118.41601562 C135.48117003 117.73071095 138.1409268 117.0527866 140.80078125 116.375 C141.72117187 116.13652344 142.6415625 115.89804687 143.58984375 115.65234375 C144.47929688 115.42675781 145.36875 115.20117188 146.28515625 114.96875 C147.10209961 114.75927734 147.91904297 114.54980469 148.76074219 114.33398438 C151.05078125 113.875 151.05078125 113.875 155.05078125 113.875 C146.47345479 88.27760972 135.41609467 67.02223557 116.05078125 47.875 C116.48828125 45.625 116.48828125 45.625 118.05078125 42.875 C132.97568512 32.84573658 160.07107694 34.83502124 176.81176758 38.00463867 C180.28556351 38.79525358 183.67024631 39.75239766 187.05078125 40.875 C187.7159375 41.09462402 188.38109375 41.31424805 189.06640625 41.54052734 C203.48507378 46.47598694 214.22470129 54.42018478 225.05078125 64.875 C225.85644531 65.6175 226.66210938 66.36 227.4921875 67.125 C243.80482396 82.55817258 256.26181456 106.67357508 257.18969727 129.25585938 C257.27480813 132.52980473 257.32664109 135.80121393 257.34594727 139.07617188 C257.35756472 140.44932275 257.37816733 141.82242518 257.4074707 143.1953125 C257.4500573 145.19759626 257.46369934 147.20042972 257.4765625 149.203125 C257.49843628 150.98058105 257.49843628 150.98058105 257.52075195 152.79394531 C257.05078125 155.875 257.05078125 155.875 255.27416992 158.35449219 C253.05078125 159.875 253.05078125 159.875 251.17675781 159.82739258 C248.36996534 158.57000886 245.71469153 157.14869565 243.03515625 155.63671875 C242.46049622 155.31467972 241.88583618 154.99264069 241.29376221 154.6608429 C239.46024575 153.6324754 237.63034959 152.59787265 235.80078125 151.5625 C225.04716264 145.49066526 225.04716264 145.49066526 214.05078125 139.875 C213.86044312 140.95527466 213.86044312 140.95527466 213.66625977 142.05737305 C213.06043042 144.83082664 212.22563472 147.31149023 211.203125 149.95703125 C210.84541016 150.88837891 210.48769531 151.81972656 210.11914062 152.77929688 C209.74595703 153.73900391 209.37277344 154.69871094 208.98828125 155.6875 C208.61123047 156.66654297 208.23417969 157.64558594 207.84570312 158.65429688 C206.9176253 161.0626001 205.98588009 163.46941614 205.05078125 165.875 C205.99546265 165.91367187 205.99546265 165.91367187 206.95922852 165.953125 C213.21794394 166.36758607 217.64736438 167.6350061 222.98828125 170.875 C224.01405273 171.47513916 224.01405273 171.47513916 225.06054688 172.08740234 C231.21575678 175.78197317 236.67922797 180.11985448 242.05078125 184.875 C243.10652344 185.73351562 243.10652344 185.73351562 244.18359375 186.609375 C265.95576385 204.53939743 279.56037019 234.08788078 282.53588867 261.68017578 C284.92858835 286.98102663 279.92486131 313.85356917 268.20703125 336.5234375 C263.32179072 346.02756248 260.25341615 355.65140967 257.48828125 365.9375 C250.5369789 391.73463741 239.42178979 411.13476801 220.10351562 429.74902344 C219.47896484 430.35649414 218.85441406 430.96396484 218.2109375 431.58984375 C217.65027588 432.12730225 217.08961426 432.66476074 216.51196289 433.21850586 C213.17878963 436.99721606 212.79145794 440.11121635 212.70703125 445.08984375 C212.67891357 446.32299316 212.6507959 447.55614258 212.62182617 448.82666016 C212.59838135 450.1419873 212.57493652 451.45731445 212.55078125 452.8125 C212.48254425 455.54844773 212.40327593 458.2839934 212.3203125 461.01953125 C212.29987381 461.69759827 212.27943512 462.37566528 212.25837708 463.07427979 C211.08475958 499.70535445 202.37798276 536.4730931 178.05078125 564.875 C176.93123047 566.23625 176.93123047 566.23625 175.7890625 567.625 C170.10336638 574.35114699 170.10336638 574.35114699 166.05078125 574.875 C163.90805041 575.01730141 161.76052548 575.09521164 159.61328125 575.125 C157.94458984 575.16367188 157.94458984 575.16367188 156.2421875 575.203125 C152.44053607 574.81225753 150.90397297 574.44715948 148.05078125 571.875 C143.61888108 564.54161903 142.96779546 555.91665203 141.95584106 547.58999634 C138.30840345 517.92838345 132.94975797 480.67676035 109.05078125 459.875 C104.44777295 457.2630557 99.64488983 455.40720225 94.67578125 453.625 C70.5703665 444.65437788 70.5703665 444.65437788 66.05078125 437.875 C71.59932935 433.12141932 77.54426541 429.29249675 83.80078125 425.5625 C119.88317656 403.90046214 143.0130257 372.2942886 153.41894531 331.52392578 C154.64390066 326.38839042 155.68995868 321.20576112 156.58300781 316.00219727 C157.45528967 311.31239342 158.47300408 308.26574329 162.05078125 304.875 C164.36590566 303.51518715 166.56231612 302.36185037 168.98828125 301.25 C170.40989454 300.56857247 171.83040888 299.88484904 173.25 299.19921875 C174.01489746 298.83231934 174.77979492 298.46541992 175.56787109 298.08740234 C180.18930186 295.8307627 184.74327173 293.44489734 189.30078125 291.0625 C190.20562256 290.59440918 191.11046387 290.12631836 192.04272461 289.64404297 C192.89616455 289.19818848 193.74960449 288.75233398 194.62890625 288.29296875 C195.3859082 287.89875732 196.14291016 287.5045459 196.92285156 287.09838867 C199.11809754 285.8987888 199.11809754 285.8987888 201.20214844 284.22387695 C203.05078125 282.875 203.05078125 282.875 205.05078125 282.875 C202.2552242 275.62299613 198.29223758 267.61252585 191.05078125 263.875 C186.66585243 264.28466463 183.8617117 266.09058155 180.23828125 268.5 C156.19965032 283.8497181 125.68008187 289.3140187 97.61523438 283.79858398 C79.18738632 279.32421258 63.69277639 269.91336704 50.05078125 256.875 C42.55970713 260.12790901 36.8957132 264.18536818 31.05078125 269.875 C41.57489629 285.3929108 57.98482275 294.94169126 75.05078125 301.875 C75.67823242 302.13909668 76.30568359 302.40319336 76.95214844 302.67529297 C94.28020368 309.74734378 113.6201108 310.7711389 132.05078125 312.875 C131.60165678 315.55176668 131.14632363 318.22723685 130.6875 320.90234375 C130.56274292 321.64979858 130.43798584 322.39725342 130.30944824 323.1673584 C125.01680181 353.80156152 105.46228283 381.33445077 80.5546875 399.46875 C53.3005835 418.62881943 21.04576936 424.64014601 -11.72607422 419.27734375 C-35.39283582 414.99414332 -55.01058667 405.74930567 -73.94921875 390.875 C-74.55636719 390.41222656 -75.16351562 389.94945312 -75.7890625 389.47265625 C-94.81720356 374.48231701 -105.33642343 350.40777287 -111.94921875 327.875 C-112.23841187 326.9636731 -112.23841187 326.9636731 -112.53344727 326.03393555 C-113.12302075 322.97251552 -113.00898839 319.9830212 -112.94921875 316.875 C-111.97799072 316.69437012 -111.0067627 316.51374023 -110.00610352 316.32763672 C-84.98043135 311.89828304 -84.98043135 311.89828304 -60.94921875 303.875 C-60.30017578 303.59849609 -59.65113281 303.32199219 -58.98242188 303.03710938 C-57.30286814 302.32065638 -55.62579403 301.59839543 -53.94921875 300.875 C-55.8520304 293.18029677 -58.94209218 286.69619281 -62.94921875 279.875 C-63.8450769 280.1695105 -63.8450769 280.1695105 -64.7590332 280.4699707 C-98.16085047 291.33777682 -129.57193155 293.63461662 -162.19921875 278.625 C-178.06622796 269.99985653 -191.47280046 257.51991989 -201.94921875 242.875 C-206.44246724 244.53270333 -210.56108021 246.72482162 -214.76171875 249 C-215.45458984 249.37253906 -216.14746094 249.74507812 -216.86132812 250.12890625 C-218.55856711 251.04190377 -220.25407013 251.95812716 -221.94921875 252.875 C-207.95826144 276.12260078 -186.33446014 299.22754663 -159.00439453 306.38427734 C-156.18256723 307.05502354 -153.36690033 307.7232019 -150.51782227 308.26879883 C-145.57292453 309.32136177 -142.97167857 310.81982135 -139.94921875 314.875 C-138.77713867 317.77029954 -138.07119753 320.707095 -137.38671875 323.75 C-137.17893799 324.59425537 -136.97115723 325.43851074 -136.75708008 326.30834961 C-135.96939029 329.51141984 -135.21700988 332.72213187 -134.47070312 335.93505859 C-129.30971671 357.9260899 -118.09404988 380.73016887 -101.94921875 396.875 C-102.24146783 400.50188596 -103.90007252 402.22644825 -106.51171875 404.625 C-126.1493064 421.30605702 -152.76986408 423.6558869 -177.46679688 421.67285156 C-199.36974769 419.07933862 -219.50440918 408.10914368 -235.94921875 393.875 C-236.78195312 393.15699219 -237.6146875 392.43898438 -238.47265625 391.69921875 C-256.32953408 375.0641273 -265.43749313 350.07765724 -266.76171875 326.0625 C-266.82359375 324.020625 -266.88546875 321.97875 -266.94921875 319.875 C-276.18921875 319.875 -285.42921875 319.875 -294.94921875 319.875 C-294.33046875 322.948125 -293.71171875 326.02125 -293.07421875 329.1875 C-290.64248068 341.35012202 -290.64248068 341.35012202 -289.69921875 346.3125 C-289.5496875 347.09496094 -289.40015625 347.87742187 -289.24609375 348.68359375 C-288.91832493 351.10304515 -288.8976073 353.4363589 -288.94921875 355.875 C-312.37426059 352.65137039 -332.81136887 345.3445256 -350.94921875 329.875 C-352.46515625 328.7303125 -352.46515625 328.7303125 -354.01171875 327.5625 C-371.76094577 311.3238455 -382.8802677 285.42245075 -384.1262207 261.47265625 C-384.66277182 230.51942844 -384.66277182 230.51942844 -379.94921875 218.875 C-379.7078418 218.23643066 -379.46646484 217.59786133 -379.21777344 216.93994141 C-373.39582887 201.60149751 -364.24324217 189.62499331 -352.94921875 177.875 C-352.3253125 177.17632813 -351.70140625 176.47765625 -351.05859375 175.7578125 C-349.51171875 174.0625 -349.51171875 174.0625 -346.94921875 171.875 C-343.8484329 171.93425069 -342.79142739 173.02119647 -340.50390625 175.140625 C-339.60056393 176.1262423 -338.7078904 177.12170881 -337.82421875 178.125 C-337.1127771 178.91559814 -337.1127771 178.91559814 -336.38696289 179.72216797 C-331.97421307 184.69739162 -327.92770546 189.93584232 -323.9453125 195.2578125 C-322.05125044 197.86192022 -322.05125044 197.86192022 -319.94921875 199.875 C-319.52612305 202.41845703 -319.52612305 202.41845703 -319.2734375 205.6328125 C-319.17071533 206.8081958 -319.06799316 207.9835791 -318.9621582 209.19458008 C-318.85476318 210.45036865 -318.74736816 211.70615723 -318.63671875 213 C-317.06702262 229.04657083 -313.61821524 241.82130527 -305.62109375 255.86328125 C-303.94921875 258.875 -303.94921875 258.875 -302.94921875 261.875 C-296.22003177 258.43563777 -290.70021614 253.74202853 -284.94921875 248.875 C-285.35914063 247.83601563 -285.7690625 246.79703125 -286.19140625 245.7265625 C-293.40829149 227.1895537 -296.95025369 206.99264741 -288.6953125 187.98828125 C-285.27112006 181.29851019 -280.90036804 175.50464012 -275.94921875 169.875 C-275.294375 169.12476563 -274.63953125 168.37453125 -273.96484375 167.6015625 C-269.53156827 162.85162448 -264.64840216 158.99761748 -259.32421875 155.3125 C-258.70281006 154.87035156 -258.08140137 154.42820312 -257.44116211 153.97265625 C-253.159822 151.12409941 -250.22929138 150.39314247 -244.94921875 150.875 C-245.21661865 150.29532471 -245.48401855 149.71564941 -245.75952148 149.1184082 C-246.97410259 146.47726845 -248.18047235 143.83245607 -249.38671875 141.1875 C-249.80759766 140.27548828 -250.22847656 139.36347656 -250.66210938 138.42382812 C-251.06494141 137.53759766 -251.46777344 136.65136719 -251.8828125 135.73828125 C-252.25462646 134.92657471 -252.62644043 134.11486816 -253.00952148 133.27856445 C-253.97104924 130.8191618 -254.5102727 128.47428882 -254.94921875 125.875 C-275.18785258 137.36114408 -293.66039643 150.35704222 -306.94921875 169.875 C-313.26300956 169.38932378 -313.26300956 169.38932378 -315.9609375 167.3671875 C-318.68225842 163.95618014 -319.99528353 160.31200177 -321.51171875 156.25 C-322.08752656 154.71281018 -322.6718252 153.17876719 -323.265625 151.6484375 C-323.51771729 150.97216309 -323.76980957 150.29588867 -324.02954102 149.59912109 C-324.96106101 147.52544468 -324.96106101 147.52544468 -327.94921875 145.875 C-327.28921875 145.875 -326.62921875 145.875 -325.94921875 145.875 C-326.22636719 144.78960938 -326.50351563 143.70421875 -326.7890625 142.5859375 C-327.15507505 141.14065719 -327.52095335 139.69534288 -327.88671875 138.25 C-328.06912109 137.53714844 -328.25152344 136.82429687 -328.43945312 136.08984375 C-328.61669922 135.38730469 -328.79394531 134.68476562 -328.9765625 133.9609375 C-329.13890381 133.3220459 -329.30124512 132.6831543 -329.46850586 132.02490234 C-334.16579411 111.01712159 -332.46184855 85.33416903 -322.94921875 65.875 C-322.53027344 65.01003906 -322.11132812 64.14507813 -321.6796875 63.25390625 C-308.61177622 37.87407857 -285.66328323 19.17533633 -258.68994141 10.11621094 C-251.30624399 7.9068638 -243.66694137 6.1753513 -235.94921875 5.875 C-234.41974609 5.81505859 -234.41974609 5.81505859 -232.859375 5.75390625 C-201.17004313 5.14792353 -177.33459791 16.20885098 -153.94921875 36.875 C-146.96396816 33.76885373 -141.44278851 30.19977292 -135.94921875 24.875 C-141.31035696 9.04288873 -163.1056738 -0.59211572 -176.640625 -8.6015625 C-178.94921875 -10.125 -178.94921875 -10.125 -179.94921875 -12.125 C-131.08690693 -46.46067858 -44.81404259 -38.38992249 0 0 Z " fill="#00CEE8" transform="translate(1353.94921875,699.125)"/>
<path d="M0 0 C10.37156459 4.88225581 20.71788175 9.81505086 31.03985596 14.80136108 C32.9042104 15.70160487 34.76920141 16.60051962 36.63427734 17.49926758 C42.73789991 20.44278246 48.83075957 23.40478198 54.90234375 26.4140625 C87.7399176 42.61804163 121.70254493 56.22504834 156 69 C156.76421265 69.28510437 157.52842529 69.57020874 158.3157959 69.86395264 C188.53206071 81.12365815 219.10702269 91.21899353 250.04052734 100.32324219 C251.19633301 100.66387695 252.35213867 101.00451172 253.54296875 101.35546875 C254.55383545 101.65090576 255.56470215 101.94634277 256.60620117 102.25073242 C259 103 259 103 261 104 C260.39004387 112.16449079 258.89720246 120.04747278 257.23553467 128.04705811 C256.74009649 130.4337127 256.25114906 132.82161843 255.76391602 135.20996094 C255.06339076 138.64367036 254.36122664 142.07703787 253.6579895 145.51019287 C236.7696604 228.0921647 224.29726848 311.43360667 213 496 C84.96 496 -43.08 496 -175 496 C-175 479.8477048 -175 479.8477048 -174.15234375 471.96875 C-174.06068436 471.07102875 -173.96902496 470.1733075 -173.87458801 469.24838257 C-173.57217179 466.33110062 -173.25654636 463.41550771 -172.9375 460.5 C-172.82740601 459.4813385 -172.71731201 458.462677 -172.60388184 457.41314697 C-163.18006263 370.87727603 -142.95124853 286.01213083 -86 147 C-85.52449707 145.98583008 -85.04899414 144.97166016 -84.55908203 143.92675781 C-73.61654743 120.66701671 -61.86184668 97.99258022 -48.71875 75.89794922 C-47.0389799 73.06572322 -45.37623435 70.22422118 -43.71875 67.37890625 C-10.54730138 10.54730138 -10.54730138 10.54730138 0 0 Z " fill="#00EBE9" transform="translate(175,378)"/>
<path d="M0 0 C128.04 0 256.08 0 388 0 C388.33 16.17 388.66 32.34 389 49 C389.8979764 67.31482193 389.8979764 67.31482193 391.06640625 85.609375 C391.13936417 86.61417908 391.21232208 87.61898315 391.28749084 88.65423584 C398.13912998 181.31210052 412.49289563 273.34414286 431.40060139 364.25814056 C431.82596211 366.30508403 432.24942318 368.35241123 432.67228699 370.39987183 C433.19315732 372.91819789 433.71810122 375.43568599 434.24775696 377.95217896 C434.47931992 379.07373383 434.71088287 380.1952887 434.94946289 381.35083008 C435.25515953 382.81338982 435.25515953 382.81338982 435.56703186 384.30549622 C435.98768671 386.92337032 436.08091981 389.35405588 436 392 C435.41452896 392.18188873 434.82905792 392.36377747 434.22584534 392.55117798 C344.75304875 420.36568917 259.68499424 453.84282484 176 496 C170.60290209 491.28923824 167.20388014 485.34581206 163.4375 479.3125 C162.00058766 477.031832 160.55903418 474.75411331 159.1171875 472.4765625 C158.41303711 471.36313477 157.70888672 470.24970703 156.98339844 469.10253906 C154.41303085 465.08183113 151.74594064 461.13310119 149.0625 457.1875 C134.7464316 435.92367465 122.05688662 413.60495683 110 391 C109.65410828 390.35182312 109.30821655 389.70364624 108.95184326 389.03582764 C97.78306415 368.06651708 87.50383109 346.77357355 78 325 C77.7172522 324.35329346 77.43450439 323.70658691 77.14318848 323.0402832 C55.83617647 274.22338033 38.94091741 223.65534167 26 172 C25.74310394 170.9805127 25.74310394 170.9805127 25.48101807 169.94042969 C23.14663377 160.66401259 20.99682928 151.35465358 19 142 C18.84529236 141.27713806 18.69058472 140.55427612 18.53118896 139.80950928 C10.8198884 103.61619374 5.39982773 67.05117599 1.5625 30.25 C1.47850952 29.45583679 1.39451904 28.66167358 1.3079834 27.84344482 C1.07293857 25.58910826 0.84862625 23.33400198 0.62890625 21.078125 C0.50588135 19.82418945 0.38285645 18.57025391 0.25610352 17.27832031 C-0.08808272 11.52853998 0 5.76007274 0 0 Z " fill="#00C8EB" transform="translate(0,982)"/>
<path d="M0 0 C0.99 0 1.98 0 3 0 C3 50.82 3 101.64 3 154 C13.395 154.495 13.395 154.495 24 155 C30.00899994 155.60089999 35.05896502 156.14598599 40.78466797 157.50488281 C44.5111851 158.33774337 48.28529798 158.82968576 52.0625 159.375 C65.37492089 161.39579881 78.21101015 164.78574867 91 169 C91.78665039 169.2573291 92.57330078 169.5146582 93.38378906 169.77978516 C114.66717736 176.79371904 135.43469706 185.02686713 155 196 C156.99947699 197.00104534 158.99948133 198.00103802 161 199 C171.05279068 204.44788281 180.61393241 210.47946083 190 217 C190.72268066 217.50192871 191.44536133 218.00385742 192.18994141 218.52099609 C202.63240739 225.81925199 212.47703769 233.54210584 222 242 C223.37445575 243.18812989 224.74936636 244.37573409 226.125 245.5625 C252.46489811 268.75733565 275.6644959 294.96384414 294 325 C294.62003906 325.98742187 295.24007812 326.97484375 295.87890625 327.9921875 C303.63796407 340.41275364 310.81311057 352.89792705 316.4921875 366.4140625 C318.03559323 370.08464917 319.67894287 373.69699548 321.37109375 377.30078125 C322 379 322 379 322 382 C322.66 382 323.32 382 324 382 C324.18175781 382.64066406 324.36351562 383.28132813 324.55078125 383.94140625 C324.80214844 384.80636719 325.05351563 385.67132813 325.3125 386.5625 C325.67794922 387.83287109 325.67794922 387.83287109 326.05078125 389.12890625 C326.97243618 392.07237842 326.97243618 392.07237842 328.36328125 395.08203125 C337.91299977 416.92223455 342.85221082 441.61867001 345.69042969 465.1784668 C345.92472561 467.09197813 345.92472561 467.09197813 347 469 C347.31120284 471.55877893 347.50964666 474.11851612 347.71875 476.6875 C347.87136047 479.02268455 347.87136047 479.02268455 349 481 C349.09270995 482.60920909 349.12192313 484.22226034 349.12025452 485.83413696 C349.12162918 486.85499893 349.12300385 487.8758609 349.12442017 488.92765808 C349.12082489 490.05190689 349.11722961 491.1761557 349.11352539 492.33447266 C349.11367142 493.51494675 349.11381744 494.69542084 349.1139679 495.91166687 C349.11338959 499.15319775 349.10836583 502.39468575 349.10139394 505.63620806 C349.09515306 509.02214911 349.09455602 512.40809095 349.09336853 515.79403687 C349.09025739 522.2078101 349.08204691 528.62156634 349.07201904 535.03533208 C349.06085119 542.33632547 349.05534576 549.63731965 349.05032361 556.93831944 C349.03986412 571.95888911 349.02226886 586.97944286 349 602 C346.29616056 599.34860409 344.09136739 596.85008652 342.07421875 593.640625 C341.5330542 592.7849292 340.99188965 591.9292334 340.43432617 591.04760742 C339.85787354 590.12439697 339.2814209 589.20118652 338.6875 588.25 C338.07430908 587.27844971 337.46111816 586.30689941 336.8293457 585.3059082 C333.64293609 580.24899484 330.48575606 575.17444245 327.34375 570.08984375 C318.28451748 555.44962867 308.81113871 541.14725718 299 527 C298.40461426 526.14132324 297.80922852 525.28264648 297.19580078 524.39794922 C288.87663652 512.43419871 280.30512817 501.16139815 270.37109375 490.484375 C268.26212655 488.20116264 266.1950567 485.88096351 264.125 483.5625 C261.17139552 480.27373473 258.16823671 477.08486206 255 474 C250.71730368 469.82125262 246.6738401 465.53368211 242.77734375 460.9921875 C240.40946682 458.33808369 237.86925518 455.88742797 235.28515625 453.4453125 C234 452 234 452 234 450 C233.01 449.67 232.02 449.34 231 449 C229.27215362 447.3708877 227.63457654 445.71926963 226 444 C221.43567059 439.23977662 216.9118666 434.97393893 211.46875 431.2265625 C210.9840625 430.82179688 210.499375 430.41703125 210 430 C210 429.34 210 428.68 210 428 C209.38125 427.690625 208.7625 427.38125 208.125 427.0625 C206.75 426.375 205.375 425.6875 204 425 C204 424.34 204 423.68 204 423 C203.26523438 422.7421875 202.53046875 422.484375 201.7734375 422.21875 C198.89212983 420.9525979 197.00799982 419.5401823 194.625 417.5 C185.11729747 409.69516956 174.60425813 403.19941244 164 397 C162.64135773 396.18584521 161.28334095 395.37064614 159.92578125 394.5546875 C158.42982487 393.66122829 156.93373022 392.76800055 155.4375 391.875 C154.74092285 391.45476562 154.0443457 391.03453125 153.32666016 390.6015625 C149.04377821 388.0605802 144.71856786 385.89867768 140.14526367 383.92919922 C137.03424613 382.5816935 133.99334293 381.09263144 130.9375 379.625 C123.12900571 375.92945316 115.11671191 372.93924635 107 370 C105.66760583 369.49444502 104.33557974 368.98791901 103.00390625 368.48046875 C99.16937704 367.03920986 95.28939667 365.76825205 91.375 364.5625 C90.6826123 364.34859619 89.99022461 364.13469238 89.27685547 363.91430664 C87.18590561 363.27172788 85.0933064 362.63485522 83 362 C81.83984375 361.64679688 80.6796875 361.29359375 79.484375 360.9296875 C63.63234696 356.24780945 47.80671161 353.39635088 31.42773438 351.3203125 C28.25358583 350.90151897 25.09666613 350.39389685 21.9375 349.875 C15.66191371 348.95017676 9.32468066 348.4865139 3 348 C3 398.82 3 449.64 3 502 C-2.62123947 499.75150421 -2.62123947 499.75150421 -5.41796875 497.2421875 C-6.33147095 496.43394531 -6.33147095 496.43394531 -7.26342773 495.609375 C-7.89837158 495.03703125 -8.53331543 494.4646875 -9.1875 493.875 C-10.53523818 492.68351425 -11.88419543 491.49340599 -13.234375 490.3046875 C-13.88470703 489.73073242 -14.53503906 489.15677734 -15.20507812 488.56542969 C-18.16056962 485.98781659 -21.22643171 483.56087564 -24.3046875 481.1328125 C-27.74729267 478.40866406 -31.15583451 475.64388793 -34.5625 472.875 C-35.23941895 472.32489258 -35.91633789 471.77478516 -36.61376953 471.20800781 C-41.69486274 467.07331126 -46.75723405 462.91621695 -51.8125 458.75 C-52.5245459 458.16347656 -53.2365918 457.57695312 -53.97021484 456.97265625 C-57.08554926 454.40563808 -60.19876213 451.83620839 -63.3046875 449.2578125 C-68.81909267 444.67096171 -68.81909267 444.67096171 -74.6875 440.5625 C-75.450625 440.046875 -76.21375 439.53125 -77 439 C-77 438.34 -77 437.68 -77 437 C-77.78117187 436.6596875 -77.78117187 436.6596875 -78.578125 436.3125 C-81.87684535 434.52480639 -84.78457421 432.28109676 -87.75 430 C-88.35199219 429.54882812 -88.95398437 429.09765625 -89.57421875 428.6328125 C-91.08906356 427.47177498 -92.54969821 426.24072061 -94 425 C-94 424.34 -94 423.68 -94 423 C-95.65 422.34 -97.3 421.68 -99 421 C-99 420.34 -99 419.68 -99 419 C-99.61875 418.690625 -100.2375 418.38125 -100.875 418.0625 C-102.25 417.375 -103.625 416.6875 -105 416 C-105 415.34 -105 414.68 -105 414 C-105.72445313 413.75894531 -106.44890625 413.51789063 -107.1953125 413.26953125 C-110.38124116 411.82743262 -112.34531411 410.09191391 -114.875 407.6875 C-117.84980298 404.91754872 -120.76127638 402.34600343 -124.125 400.0625 C-125.07375 399.381875 -126.0225 398.70125 -127 398 C-127 397.34 -127 396.68 -127 396 C-128.09248047 395.63261719 -128.09248047 395.63261719 -129.20703125 395.2578125 C-132.32139623 393.85525932 -134.21494327 392.22086374 -136.6875 389.875 C-140.81286538 386.05476519 -145.04939237 382.49061129 -149.4609375 379.0078125 C-157.65559149 372.52773227 -165.66472437 365.80804197 -173.72729492 359.16479492 C-179.47433947 354.43023628 -185.23346913 349.71081214 -191 345 C-192.83345036 343.50014304 -194.66678171 342.0001406 -196.5 340.5 C-197.86125 339.38625 -197.86125 339.38625 -199.25 338.25 C-229.5 313.5 -229.5 313.5 -232.2734375 311.23046875 C-234.02817784 309.79500065 -235.78335155 308.36006204 -237.5390625 306.92578125 C-241.69475308 303.52966553 -245.84640524 300.12943758 -249.98046875 296.70703125 C-256.89342417 290.98800281 -263.82106521 285.29484687 -270.875 279.75 C-271.45161377 279.29641113 -272.02822754 278.84282227 -272.62231445 278.37548828 C-275.03486122 276.48981118 -277.45049849 274.69966768 -280 273 C-280 272.34 -280 271.68 -280 271 C-280.56589844 270.74347656 -281.13179687 270.48695313 -281.71484375 270.22265625 C-285.22190786 268.34622708 -288.11328539 265.80503923 -291.18359375 263.29296875 C-293.13306643 261.70581138 -295.10632152 260.14758834 -297.09765625 258.61328125 C-298.09667969 257.83339844 -299.09570312 257.05351562 -300.125 256.25 C-301.05570313 255.53328125 -301.98640625 254.8165625 -302.9453125 254.078125 C-305 252 -305 252 -305 248 C-303.1640625 246.140625 -303.1640625 246.140625 -300.625 244.25 C-299.72007813 243.56421875 -298.81515625 242.8784375 -297.8828125 242.171875 C-296.93148438 241.45515625 -295.98015625 240.7384375 -295 240 C-292.33688109 237.83114416 -289.68344599 235.65093658 -287.03125 233.46875 C-285 232 -285 232 -283 232 C-283 231.34 -283 230.68 -283 230 C-281.1015625 228.2734375 -281.1015625 228.2734375 -278.625 226.375 C-277.81289062 225.74335938 -277.00078125 225.11171875 -276.1640625 224.4609375 C-274 223 -274 223 -272 223 C-272 222.34 -272 221.68 -272 221 C-270.53125 219.72290039 -270.53125 219.72290039 -268.5 218.28515625 C-264.19161177 215.15892463 -260.09139363 211.84054495 -256 208.4375 C-254.508186 207.20267363 -253.01598906 205.96830977 -251.5234375 204.734375 C-250.77288086 204.11369141 -250.02232422 203.49300781 -249.24902344 202.85351562 C-245.72221219 199.94692086 -242.17478018 197.06596527 -238.625 194.1875 C-232.4035919 189.14085299 -226.19633553 184.07742213 -220 179 C-218.16678352 177.49985719 -216.33344854 175.99985918 -214.5 174.5 C-213.5925 173.7575 -212.685 173.015 -211.75 172.25 C-192.5 156.5 -192.5 156.5 -189.77734375 154.2734375 C-187.8514851 152.69699624 -185.9271071 151.11874508 -184.00390625 149.5390625 C-183.03324219 148.74242187 -182.06257813 147.94578125 -181.0625 147.125 C-179.74958984 146.04605469 -179.74958984 146.04605469 -178.41015625 144.9453125 C-172.28313253 140 -172.28313253 140 -170 140 C-169.67 139.01 -169.34 138.02 -169 137 C-166.4375 135.8125 -166.4375 135.8125 -164 135 C-164 134.34 -164 133.68 -164 133 C-162.63671875 131.80859375 -162.63671875 131.80859375 -160.6875 130.4375 C-155.27465971 126.51128486 -150.15680816 122.25383765 -145 118 C-143.16735981 116.49915322 -141.33403254 114.999145 -139.5 113.5 C-136.80790053 111.29771834 -134.11607386 109.09511364 -131.42578125 106.890625 C-125.4077353 101.96104476 -119.37178841 97.05401611 -113.32983398 92.15380859 C-108.32258039 88.08758247 -103.34569358 83.98578219 -98.375 79.875 C-92.64348096 75.13771741 -86.85539667 70.48725346 -80.98291016 65.92602539 C-75.97653322 62.0241466 -71.14102649 57.93807491 -66.328125 53.80078125 C-64 52 -64 52 -62 52 C-62 51.34 -62 50.68 -62 50 C-60.0234375 48.1953125 -60.0234375 48.1953125 -57.375 46.125 C-56.46234375 45.41085938 -55.5496875 44.69671875 -54.609375 43.9609375 C-52.64396927 42.48394098 -50.6892662 41.08006843 -48.625 39.75 C-45.9305422 38.0776293 -45.9305422 38.0776293 -43.75 35.75 C-43.1725 35.1725 -42.595 34.595 -42 34 C-41.34 34 -40.68 34 -40 34 C-40 33.34 -40 32.68 -40 32 C-38.53564453 30.72729492 -38.53564453 30.72729492 -36.5078125 29.29296875 C-32.14832388 26.13018371 -28.01063329 22.76031319 -23.875 19.3125 C-17.18801906 13.76743369 -10.41739327 8.34727054 -3.5625 3.01171875 C-1.19854243 1.23839123 -1.19854243 1.23839123 0 0 Z " fill="#00AFE8" transform="translate(1444,0)"/>
<path d="M0 0 C0.93306473 0.10866394 1.86612946 0.21732788 2.82746887 0.32928467 C4.38204048 0.5235202 4.38204048 0.5235202 5.96801758 0.72167969 C7.06840866 0.85680969 8.16879974 0.9919397 9.30253601 1.13116455 C23.58781264 2.94552194 37.79163248 5.2964149 52.00457764 7.59857178 C130.04412483 20.22696787 208.62969933 30.86517817 287.73706055 32.9609375 C317.98047649 33.78923614 317.98047649 33.78923614 326.82299805 37.18728638 C327.53511444 37.45941011 328.24723083 37.73153385 328.98092651 38.01190376 C329.51936188 38.22034857 330.05779724 38.42879337 330.61254883 38.64355469 C330.91712428 62.06211705 331.14590898 85.48034981 331.28610706 108.90049553 C331.35295369 119.77662502 331.44397657 130.65151925 331.59326172 141.52685547 C331.72341791 151.01323392 331.80684118 160.49871731 331.83569926 169.98596394 C331.85255234 175.00335617 331.89174307 180.0181894 331.98703957 185.03475571 C332.67108529 222.46500189 332.67108529 222.46500189 322.4968996 233.87997246 C321.39022347 235.00263995 320.26245952 236.10511614 319.10973644 237.18045044 C316.98306535 239.25870802 315.47136621 241.62730405 313.92114258 244.15136719 C313.43798584 244.91707031 312.9548291 245.68277344 312.45703125 246.47167969 C311.76057495 247.60863281 311.76057495 247.60863281 311.05004883 248.76855469 C310.5232251 249.62707031 309.99640137 250.48558594 309.45361328 251.37011719 C288.51263022 286.12921503 277.33049056 322.54104995 272.61254883 362.64355469 C163.38254883 362.64355469 54.15254883 362.64355469 -58.38745117 362.64355469 C-51.48787198 255.01011923 -42.46045346 148.1009697 -20.76000977 42.38085938 C-20.43734698 40.80839282 -20.11751118 39.2353425 -19.80102539 37.66162109 C-18.0955617 29.23451488 -16.0306851 20.99960428 -13.39526367 12.81152344 C-13.15774384 12.0532576 -12.920224 11.29499176 -12.67550659 10.51374817 C-10.4641443 3.91882405 -7.52538518 -0.88091885 0 0 Z " fill="#00CCEB" transform="translate(552.387451171875,511.3564453125)"/>
<path d="M0 0 C112.86 0 225.72 0 342 0 C347.445 13.86 347.445 13.86 353 28 C356.94865895 36.62270913 356.94865895 36.62270913 361.00390625 45.1953125 C365.93176213 56.20067 366.00323222 67.07061615 361.9375 78.375 C356.15701323 92.15672552 347.8076861 103.66864796 338.85986328 115.52246094 C336.40623411 118.79096039 333.99599701 122.0902761 331.58447266 125.38989258 C326.56789335 132.2484647 321.46503657 139.01408717 316.17626953 145.66455078 C311.15570685 152.00909766 306.39083423 158.53915202 301.6171875 165.0703125 C299.2306544 168.33453219 296.81928246 171.57758369 294.3828125 174.8046875 C276.2795494 198.8594045 257.34169934 226.63987331 261.5625 258.25 C266.39443515 282.24190023 289.86747956 296.55158945 308.7734375 309.18505859 C310.32651925 310.2091451 311.88194776 311.22966999 313.4375 312.25 C318.89795935 315.84499122 323.97652568 319.82118065 329 324 C328.625 326.4375 328.625 326.4375 328 329 C324.86100589 330.56949706 321.4552975 330.36193438 318 330.54296875 C316.25923059 330.64397281 314.51851024 330.74582489 312.77783203 330.84838867 C311.37383148 330.92988663 311.37383148 330.92988663 309.94146729 331.01303101 C280.86495336 332.73766353 251.93643493 335.71059729 223 339 C221.80876526 339.13494873 220.61753052 339.26989746 219.39019775 339.40893555 C191.12130159 342.62936294 162.97936297 346.48076894 134.8671875 350.84765625 C133.77463968 351.01728819 132.68209187 351.18692013 131.55643654 351.36169243 C120.54458041 353.07351394 109.53533565 354.80080536 98.53139114 356.56280422 C94.39427419 357.22405225 90.25610804 357.87857883 86.11778641 358.53223991 C84.18300737 358.83985746 82.24876825 359.15089376 80.31513596 359.46563911 C70.49586915 361.06394659 60.99094794 362.55005243 51 362 C11.2371516 294.05687466 11.97737044 170.70075722 5.3125 82.5 C5.26334946 81.83107224 5.21419891 81.16214447 5.16355896 80.47294617 C3.20077454 53.66352288 1.64274458 26.83149477 0 0 Z " fill="#00B2EC" transform="translate(494,982)"/>
<path d="M0 0 C6.93897869 11.06171916 4.25887109 31.08503623 4.55149841 43.86985779 C4.5726452 44.7614412 4.59379199 45.65302461 4.6155796 46.5716257 C5.05014818 65.14640146 5.13898928 83.71417509 5.11606562 102.29322565 C5.11162476 106.84128632 5.11321688 111.38934621 5.1139679 115.93740845 C5.11448476 123.76261304 5.11142733 131.5878091 5.10573006 139.41301155 C5.09749891 150.72604663 5.09498815 162.0390777 5.09374207 173.35211544 C5.09156947 191.72001613 5.08495877 210.0879123 5.07543945 228.45581055 C5.06621842 246.26700824 5.05916073 264.07820469 5.05493164 281.8894043 C5.05453756 283.54447083 5.05453756 283.54447083 5.05413551 285.23297305 C5.05283019 290.76993561 5.05156655 296.30689817 5.05032361 301.84386075 C5.04000698 347.56257695 5.0224384 393.28128824 5 439 C-0.70869458 438.73191035 -6.41733821 438.46276619 -12.12594032 438.19271469 C-14.0611918 438.10130603 -15.99645606 438.01016768 -17.93173409 437.91932297 C-33.75672778 437.17619361 -49.56877619 436.32895386 -65.375 435.25 C-66.59160309 435.16729858 -67.80820618 435.08459717 -69.06167603 434.99938965 C-139.87821084 430.1263305 -211.35977694 422.30477531 -281.1875 409.3125 C-282.16058105 409.13436768 -283.13366211 408.95623535 -284.13623047 408.77270508 C-290.68696225 407.48526103 -296.78818901 405.43337722 -303 403 C-303.23820188 397.65175936 -302.44745462 393.12898389 -300.859375 388.0625 C-300.52144928 386.95334229 -300.52144928 386.95334229 -300.17669678 385.82177734 C-297.79350771 378.1191857 -295.08226927 370.5471002 -292.25 363 C-291.97776611 362.27020935 -291.70553223 361.5404187 -291.42504883 360.78851318 C-265.48210912 291.39133514 -234.15374815 222.13788296 -192 161 C-191.50951172 160.28553711 -191.01902344 159.57107422 -190.51367188 158.83496094 C-179.65718279 143.05011288 -168.33736708 127.66635985 -156 113 C-155.55333984 112.46842285 -155.10667969 111.9368457 -154.64648438 111.38916016 C-139.08073827 92.91141893 -122.67688432 73.81686769 -103.54296875 58.984375 C-101.11933851 57.09312437 -98.80114167 55.10841713 -96.48608398 53.08666992 C-88.42888892 46.08927866 -79.87022265 39.92280903 -71 34 C-70.23252441 33.48711426 -69.46504883 32.97422852 -68.67431641 32.44580078 C-57.71459433 25.21071579 -46.35224687 18.94215403 -34.625 13.0625 C-34.00718658 12.75130219 -33.38937317 12.44010437 -32.75283813 12.11947632 C-7.43853078 -0.57496314 -7.43853078 -0.57496314 0 0 Z " fill="#00E4E9" transform="translate(878,0)"/>
<path d="M0 0 C-0.39520811 4.01794911 -0.87029182 8.01701543 -1.3984375 12.01953125 C-2.37543459 20.64967219 -1.38325479 25.07867241 4 32 C4 32.66 4 33.32 4 34 C4.99 34.3403125 4.99 34.3403125 6 34.6875 C8.45581166 35.7619176 10.35358944 36.84604163 12.5625 38.3125 C15.93593287 40.49117539 19.33035486 42.02113749 23.0625 43.5 C30.66622337 46.59320233 35.53135704 49.71197504 40.15234375 56.546875 C42.96161623 64.67693544 40.09412629 74.20821994 38.625 82.375 C31.56743977 118.57989166 31.56743977 118.57989166 42.68359375 152.45703125 C46.32907048 157.58720325 46.32907048 157.58720325 51.39956379 161.13688087 C54.6117097 162.77782265 56.6494146 164.24318318 59 167 C60.51347156 173.11516182 60.27589748 179.14590643 60.15112305 185.41162109 C60.14993838 187.30669874 60.15315076 189.20178345 60.16041565 191.09684753 C60.16756065 196.24664331 60.11278614 201.39414303 60.04687095 206.54345274 C59.98777621 211.97341499 59.98510937 217.40341417 59.97602844 222.83364868 C59.95007369 233.16194458 59.87238613 243.48919424 59.77673227 253.81705344 C59.67212457 265.40550884 59.62833926 276.99393044 59.58846223 288.58275867 C59.4684806 321.94274475 59.31415324 355.3027498 58.53051758 388.65478516 C58.501807 389.92534732 58.501807 389.92534732 58.47251642 391.22157741 C57.68901254 425.18426163 57.68901254 425.18426163 54 432 C47.49626578 431.5336222 42.50068809 430.33427749 36.625 427.5625 C35.85462402 427.20833008 35.08424805 426.85416016 34.29052734 426.48925781 C-18.37431728 401.94000944 -62.94348795 366.60528811 -100 322 C-100.76642822 321.08299316 -100.76642822 321.08299316 -101.54833984 320.14746094 C-128.87431362 287.36973279 -152.32382068 251.0404267 -172.62011719 213.54052734 C-174.19497209 210.64103334 -175.78981826 207.75284735 -177.3828125 204.86328125 C-201.05673673 161.6297672 -220.18671076 115.91130517 -238 70 C-238.46680176 68.79794922 -238.93360352 67.59589844 -239.41455078 66.35742188 C-240.68250867 63.07543099 -241.93901014 59.78944059 -243.1875 56.5 C-243.53828613 55.5812207 -243.88907227 54.66244141 -244.25048828 53.71582031 C-251.0373446 35.55666813 -251.0373446 35.55666813 -249 31 C-242.84348154 26.58952741 -234.17273199 25.34853705 -226.9375 23.75 C-226.2837439 23.604487 -225.62998779 23.458974 -224.9564209 23.30905151 C-161.40683667 9.26808695 -95.71383866 1.98772884 -30.87078857 -2.77841187 C-28.8971398 -2.92439585 -26.92385043 -3.07533632 -24.95098877 -3.2315979 C-22.2364836 -3.44328003 -19.52138577 -3.63144549 -16.8046875 -3.8125 C-16.01225647 -3.87769333 -15.21982544 -3.94288666 -14.40338135 -4.01005554 C-9.24097717 -4.31785375 -3.90241508 -3.90241508 0 0 Z " fill="#008AED" transform="translate(824,1424)"/>
<path d="M0 0 C13.85424104 0.49479432 26.80550155 7.57244601 38.86669922 13.890625 C41.10025589 15.05213582 43.34753758 16.18344192 45.59765625 17.3125 C61.89210352 25.57277484 76.75440273 35.58840749 91 47 C91.93070313 47.73734375 92.86140625 48.4746875 93.8203125 49.234375 C99.84963999 54.07845008 105.57063596 59.19367563 111.234375 64.453125 C113.43381701 66.47859985 115.65876171 68.44094481 117.9375 70.375 C125.90864137 77.29555161 133.43899367 84.94342587 140.26953125 92.98828125 C142.41533274 95.48283603 144.64585677 97.89218982 146.875 100.3125 C151.79181449 105.71656638 156.46285127 111.27518587 161 117 C161.51046875 117.64324219 162.0209375 118.28648438 162.546875 118.94921875 C174.80305664 134.44126143 186.55929662 150.21933462 197 167 C194.3136741 170.5672919 191.57799593 173.31882724 188.0625 176.0625 C183.70399746 179.55046275 179.5696734 183.18045201 175.5 187 C171.62567814 190.62990308 167.71095612 194.11751676 163.5625 197.4375 C159.18748028 200.94643139 155.07979091 204.65844505 151 208.5 C146.08691885 213.1261859 141.04878279 217.47270687 135.77734375 221.69140625 C131.99940975 224.83171426 128.43886099 228.18289349 124.85546875 231.54125977 C120.50552335 235.59396757 115.99742434 239.36445105 111.33984375 243.0625 C109.08479874 244.92978268 107.03353646 246.8960177 105 249 C106.60774235 253.49952055 110.1397551 255.96803172 113.6875 258.9375 C115.05484867 260.10137318 116.42203158 261.26544112 117.7890625 262.4296875 C118.4893457 263.02233398 119.18962891 263.61498047 119.91113281 264.22558594 C123.15134972 266.97802826 126.35535404 269.77168044 129.5625 272.5625 C134.93429153 277.22261113 140.32706043 281.85761341 145.73071289 286.48071289 C150.63682909 290.68113124 155.51717457 294.91078453 160.39453125 299.14453125 C164.58336858 302.77832595 168.78631236 306.39506182 173 310 C178.48460812 314.69224938 183.94376173 319.41303853 189.39453125 324.14453125 C193.58336858 327.77832595 197.78631236 331.39506182 202 335 C206.84915361 339.14859869 211.68071453 343.31674344 216.5 347.5 C223.64061609 353.69725512 230.81534822 359.85389754 238 366 C245.8129514 372.68358067 253.61083877 379.38336402 261.37231445 386.12670898 C264.53107013 388.86891639 267.69802698 391.60054374 270.8828125 394.3125 C271.51123047 394.84810547 272.13964844 395.38371094 272.78710938 395.93554688 C273.9717256 396.94391839 275.15781437 397.9505638 276.34570312 398.95507812 C279.72506896 401.83259801 282.90166668 404.82104091 286 408 C275.45554721 410.63198043 264.85227173 412.48898194 254.125 414.1875 C253.19827484 414.33484589 252.27154968 414.48219177 251.31674194 414.63400269 C172.23871711 427.12183995 92.44350068 434.23946078 12.53515625 438.484375 C11.55335388 438.53727188 10.57155151 438.59016876 9.55999756 438.64466858 C8.64824768 438.69199631 7.7364978 438.73932404 6.79711914 438.78808594 C5.61793663 438.84993073 5.61793663 438.84993073 4.41493225 438.9130249 C1.60853514 439.01409882 -1.19198182 439.00535762 -4 439 C-4.02314792 401.251758 -4.04063829 363.5035171 -4.05106533 325.75526938 C-4.05231528 321.24683973 -4.05360967 316.7384101 -4.05493164 312.22998047 C-4.05519395 311.33284657 -4.05545626 310.43571267 -4.05572652 309.51139289 C-4.05948938 296.95604244 -4.06564122 284.40069518 -4.0737354 271.84534681 C-4.16501846 130.12309476 -4.16501846 130.12309476 -3.55859375 84.21875 C-3.54872791 83.45706198 -3.53886206 82.69537395 -3.52869725 81.91060448 C-3.31947129 65.91194138 -2.97417592 49.91752089 -2.52758789 33.92382812 C-2.50888984 33.22743697 -2.49019178 32.53104582 -2.47092712 31.8135519 C-1.74723861 5.24171584 -1.74723861 5.24171584 0 0 Z " fill="#00D1EA" transform="translate(994,0)"/>
<path d="M0 0 C10.58949865 8.64448869 15.53357134 26.32027059 20.21240234 38.81408691 C21.15816874 41.33853427 22.1148647 43.85861659 23.07421875 46.37792969 C24.40599791 49.87700368 25.73444463 53.37730712 27.05957031 56.87890625 C48.49047093 113.47716585 72.14720752 169.80562217 103 222 C104.00704226 223.72376378 105.01408146 225.44752935 106.02104187 227.17134094 C120.49922298 251.90520068 136.31203348 275.70386241 153 299 C175 329.73401245 175 329.73401245 175 335 C166.67539232 333.73385921 159.11782839 331.01808917 151.3125 327.9375 C150.6577066 327.68178223 150.00291321 327.42606445 149.32827759 327.16259766 C122.11599583 316.52033758 95.42531429 304.45171878 69 292 C67.989375 291.52820312 66.97875 291.05640625 65.9375 290.5703125 C4.37371768 261.8094546 -54.05842025 224.54912718 -107 182 C-107.6403418 181.4858252 -108.28068359 180.97165039 -108.94042969 180.44189453 C-116.51686098 174.34669401 -124.03109487 168.18513261 -131.42700195 161.87182617 C-134.65348118 159.12090171 -137.93207479 156.45187208 -141.25 153.8125 C-147.77234801 148.50892651 -153.79915231 142.68580021 -159.88671875 136.89453125 C-163.12873037 133.81185399 -166.41996133 130.79953039 -169.75 127.8125 C-175.5989434 122.47605094 -181.20727235 116.90307141 -186.8125 111.3125 C-187.7087207 110.42087158 -188.60494141 109.52924316 -189.52832031 108.6105957 C-194.55826749 103.56891386 -199.4010049 98.43791005 -204 93 C-204.98806641 91.85144531 -204.98806641 91.85144531 -205.99609375 90.6796875 C-208.31506658 87.7762581 -209.8618593 85.460469 -210.9375 81.875 C-209.15543371 76.4099967 -202.92687439 74.03441884 -198.07397461 71.42919922 C-194.73578163 69.74178385 -191.37585709 68.11075425 -188 66.5 C-187.37740295 66.2014209 -186.75480591 65.9028418 -186.11334229 65.59521484 C-170.63925178 58.18801243 -154.86568426 51.51663796 -139 45 C-138.3047522 44.71360657 -137.60950439 44.42721313 -136.89318848 44.13214111 C-101.18991454 29.43036638 -65.03911498 15.95151694 -28 5 C-26.94490234 4.68788574 -25.88980469 4.37577148 -24.80273438 4.05419922 C-22.16544934 3.28581058 -19.52379271 2.54009547 -16.875 1.8125 C-16.17777832 1.61575684 -15.48055664 1.41901367 -14.76220703 1.21630859 C-9.96639567 -0.03139189 -4.93164979 -0.76257638 0 0 Z " fill="#00A0EC" transform="translate(462,1482)"/>
<path d="M0 0 C-1.31636231 4.51019368 -3.09187647 8.002623 -5.7109375 11.89453125 C-6.07505234 12.43921555 -6.43916718 12.98389984 -6.8143158 13.54508972 C-7.99423252 15.30570286 -9.18424431 17.05920348 -10.375 18.8125 C-11.19854184 20.03555081 -12.02169996 21.25886008 -12.84448242 22.48242188 C-18.17582747 30.39220356 -23.61807957 38.21931937 -29.15234375 45.98828125 C-42.97590066 65.41040271 -55.97779653 85.41235894 -68 106 C-68.41862305 106.7125293 -68.83724609 107.42505859 -69.26855469 108.15917969 C-98.73517011 158.45086147 -122.67464215 211.28782298 -143.25843811 265.77584839 C-146.43754427 274.18187084 -149.68993385 282.55864025 -152.97595215 290.92340088 C-153.60161792 292.51862222 -154.22503 294.11472995 -154.8458252 295.71185303 C-158.05427301 303.96528853 -161.40888814 312.12636942 -165.12890625 320.1640625 C-165.59743263 321.19048355 -165.59743263 321.19048355 -166.07542419 322.23764038 C-168.27554517 326.89794987 -170.68817021 331.03247557 -174 335 C-180.56700339 337.2748766 -189.11509344 333.96971772 -195.5 332.0625 C-196.67159668 331.71896484 -197.84319336 331.37542969 -199.05029297 331.02148438 C-242.80165584 317.99063565 -286.27819945 302.32394869 -328.03997803 283.8651123 C-330.29031141 282.87186267 -332.54287108 281.8837448 -334.79541016 280.89550781 C-339.28057109 278.92541152 -343.75974747 276.94216224 -348.23553467 274.9508667 C-350.01132511 274.16163096 -351.78819269 273.3748135 -353.56622314 272.59063721 C-379.66855477 261.05788528 -379.66855477 261.05788528 -384 254 C-384.30294215 246.27497528 -378.97498721 241.24030479 -374.03616333 235.86102295 C-371.95674654 233.71143607 -369.84792872 231.59643197 -367.72265625 229.4921875 C-366.95247665 228.72246613 -366.18229706 227.95274475 -365.38877869 227.15969849 C-363.7717329 225.54565217 -362.1522793 223.93401481 -360.53051758 222.32470703 C-358.06729275 219.87975719 -355.61218304 217.42688154 -353.15820312 214.97265625 C-351.57599167 213.39536089 -349.99332453 211.81852247 -348.41015625 210.2421875 C-347.68594986 209.51909393 -346.96174347 208.79600037 -346.21559143 208.05099487 C-342.19501043 204.0671865 -338.08608488 200.24301458 -333.79193115 196.55505371 C-330.84423582 193.99701762 -328.02612481 191.30260005 -325.1875 188.625 C-320.22026907 183.97684467 -315.14423967 179.55521464 -309.83203125 175.30078125 C-306.55798999 172.64090497 -303.37481474 169.88751498 -300.1875 167.125 C-293.83874518 161.64558036 -287.31785626 156.42300007 -280.68066406 151.29833984 C-279.08304023 150.0641499 -277.4905914 148.82326962 -275.8984375 147.58203125 C-260.32101678 135.49474151 -244.35527732 124.00948404 -228 113 C-226.71352261 112.1289344 -225.4270632 111.25784223 -224.140625 110.38671875 C-60.47804219 -0 -60.47804219 -0 0 0 Z " fill="#00F9E8" transform="translate(637,39)"/>
<path d="M0 0 C2.1049048 1.36723973 3.13895985 2.52004075 4.52856445 4.59326172 C4.97627197 5.25237549 5.42397949 5.91148926 5.88525391 6.59057617 C6.58074341 7.64571411 6.58074341 7.64571411 7.2902832 8.72216797 C7.7752124 9.44428467 8.2601416 10.16640137 8.75976562 10.91040039 C10.17648105 13.02828746 11.57922358 15.15476097 12.9777832 17.28466797 C13.6584082 18.31333984 14.3390332 19.34201172 15.0402832 20.40185547 C18.37053867 25.53104357 21.37891077 30.7670983 24.2590332 36.15966797 C25.94726517 39.22918064 27.71095649 42.23972045 29.50366211 45.2487793 C46.26713634 73.4031456 72.71628494 118.17732731 67.9777832 152.28466797 C66.32543945 155.29248047 66.32543945 155.29248047 64.0402832 158.40966797 C63.63277832 158.97242432 63.22527344 159.53518066 62.80541992 160.11499023 C61.54354411 161.84903773 60.26237294 163.56740573 58.9777832 165.28466797 C58.24688477 166.28111328 57.51598633 167.27755859 56.76293945 168.30419922 C54.52988866 171.32063492 52.26259657 174.30725879 49.9777832 177.28466797 C49.55770996 177.8323584 49.13763672 178.38004883 48.70483398 178.94433594 C39.0148818 191.53732163 28.70006331 203.55997102 17.9777832 215.28466797 C17.51903809 215.78853027 17.06029297 216.29239258 16.58764648 216.81152344 C7.49417608 226.79245419 -1.73250992 236.51741772 -12.0222168 245.28466797 C-13.03869356 246.17562422 -14.05424098 247.06764135 -15.0690918 247.96044922 C-39.92855324 269.7228196 -85.32939401 307.44953647 -120.0222168 306.28466797 C-123.14860121 295.73655612 -122.24246433 282.90036972 -122.54956055 272.01123047 C-122.56997847 271.30808338 -122.59039639 270.60493629 -122.61143303 269.88048172 C-123.07256336 253.93806335 -123.35427552 237.99405493 -123.55464554 222.04641724 C-123.58528573 219.61451172 -123.61709045 217.18262296 -123.64889526 214.75073242 C-124.33067854 161.60035984 -124.11209954 108.43818549 -124.0222168 55.28466797 C-123.2078717 55.00726776 -122.39352661 54.72986755 -121.55450439 54.44406128 C-118.47048011 53.3918413 -115.38744483 52.33681139 -112.30499268 51.27999878 C-110.98253046 50.82720683 -109.65970703 50.37546822 -108.33648682 49.92489624 C-81.64753268 40.83393165 -56.28657848 28.90387919 -31.4597168 15.59716797 C-30.8659021 15.27891052 -30.2720874 14.96065308 -29.66027832 14.63275146 C-24.00276357 11.59320334 -18.37234353 8.52152601 -12.83862305 5.26123047 C-11.72112671 4.60707153 -11.72112671 4.60707153 -10.58105469 3.93969727 C-9.25732796 3.15688864 -7.9418204 2.35991823 -6.63720703 1.5456543 C-2.52877058 -0.89451863 -2.52877058 -0.89451863 0 0 Z " fill="#006BED" transform="translate(1114.022216796875,1549.71533203125)"/>
<path d="M0 0 C7.22635399 7.58767169 8.22825415 20.83215268 10.25 30.8125 C10.56825803 32.35236924 10.88726341 33.89208421 11.20703125 35.43164062 C11.97996562 39.16104128 12.74281245 42.89237182 13.5 46.625 C11.53065742 46.63379936 11.53065742 46.63379936 9.52153015 46.64277649 C-3.0205504 46.70068413 -15.56246874 46.77377951 -28.10438251 46.86071491 C-34.54800922 46.90491918 -40.99157986 46.94427571 -47.43530273 46.97143555 C-99.4693604 47.17897183 -99.4693604 47.17897183 -151.0625 53.4375 C-152.56522878 53.69968164 -154.06799683 53.96163825 -155.57080078 54.22338867 C-216.76806156 65.03310169 -276.817833 87.29673763 -330.11523438 119.30859375 C-331.05689453 119.87320313 -331.99855469 120.4378125 -332.96875 121.01953125 C-334.21301758 121.77520386 -334.21301758 121.77520386 -335.48242188 122.54614258 C-337.5 123.625 -337.5 123.625 -339.5 123.625 C-339.5 94.585 -339.5 65.545 -339.5 35.625 C-324.13046465 30.50182155 -309.03166195 30.29315096 -292.96606445 29.84951782 C-212.69444628 27.54475496 -132.57791822 16.59615691 -53.51513672 2.94995117 C-33.16864109 -0.54852848 -33.16864109 -0.54852848 -23.19921875 -1.671875 C-22.15442101 -1.79011124 -22.15442101 -1.79011124 -21.08851624 -1.91073608 C-13.75369172 -2.66473812 -6.91200419 -2.71543022 0 0 Z " fill="#00BAEC" transform="translate(1329.5,514.375)"/>
<path d="M0 0 C0.99 0.495 0.99 0.495 2 1 C1.67 1.66 1.34 2.32 1 3 C0.67 2.01 0.34 1.02 0 0 Z " fill="#00B0EC" transform="translate(1018,839)"/>
<path d="" fill="#00B2EC" transform="translate(0,0)"/>
<path d="" fill="#00B2EC" transform="translate(0,0)"/>
<path d="M0 0 C2 1 2 1 2 1 Z " fill="#0074ED" transform="translate(1130,1539)"/>
<path d="M0 0 C2 1 2 1 2 1 Z " fill="#00B0EC" transform="translate(1023,844)"/>
<path d="M0 0 C2 1 2 1 2 1 Z " fill="#00B0EC" transform="translate(1021,843)"/>
<path d="" fill="#00B1EC" transform="translate(0,0)"/>
<path d="" fill="#00B1EC" transform="translate(0,0)"/>
<path d="" fill="#00B1EC" transform="translate(0,0)"/>
<path d="" fill="#00B1EC" transform="translate(0,0)"/>
<path d="" fill="#00B2EC" transform="translate(0,0)"/>
<path d="" fill="#00B2EC" transform="translate(0,0)"/>
<path d="" fill="#0074ED" transform="translate(0,0)"/>
<path d="" fill="#0074ED" transform="translate(0,0)"/>
<path d="" fill="#0074ED" transform="translate(0,0)"/>
<path d="" fill="#00B0EC" transform="translate(0,0)"/>
</svg>
